# xmcd
#
# Track frame offsets:
#	150
#	17467
#	46510
#	71832
#
# Disc length: 1254 seconds
#
# Revision: 0
# Processed by: cddbd v1.5.2PL0 Copyright (c) Steve Scherf et al.
# Submitted via: EasyCDDAExtractor 2010.6.0.0
#
DISCID=2604e404
DTITLE=DNA feat. Sharon Redd - Can You Handle It
DYEAR=1992
DGENRE=Dance
TTITLE0=Can You Handle It (DNA Radio Mix)
TTITLE1=Can You Handle It (Maurice's Classic Mix)
TTITLE2=Can You Handle It (DNA Full Version)
TTITLE3=Can You Handle It
EXTD=
EXTT0=
EXTT1=
EXTT2=
EXTT3=
PLAYORDER=
